<svg width="219" height="76" viewBox="0 0 219 76" fill="none" xmlns="http://www.w3.org/2000/svg">
<path d="M72.9336 29.2266L77.499 42.1172L82.04 29.2266H86.8496V47H83.1753V42.1416L83.5415 33.7554L78.7441 47H76.2295L71.4443 33.7676L71.8105 42.1416V47H68.1484V29.2266H72.9336ZM102.866 39.2974H95.8349V44.0581H104.087V47H92.1728V29.2266H104.062V32.1929H95.8349V36.4287H102.866V39.2974ZM108.36 47V29.2266H113.829C115.392 29.2266 116.787 29.5806 118.016 30.2886C119.253 30.9884 120.217 31.9894 120.909 33.2915C121.601 34.5854 121.947 36.0584 121.947 37.7104V38.5283C121.947 40.1803 121.605 41.6493 120.921 42.9351C120.246 44.2209 119.29 45.2178 118.053 45.9258C116.816 46.6338 115.42 46.9919 113.866 47H108.36ZM112.022 32.1929V44.0581H113.792C115.225 44.0581 116.319 43.5902 117.076 42.6543C117.833 41.7184 118.22 40.3797 118.236 38.6382V37.6982C118.236 35.8916 117.861 34.5244 117.113 33.5967C116.364 32.6608 115.27 32.1929 113.829 32.1929H112.022ZM141.21 47H137.548V39.3828H130.407V47H126.745V29.2266H130.407V36.4287H137.548V29.2266H141.21V47ZM161.145 38.5161C161.145 40.2658 160.836 41.7998 160.218 43.1182C159.599 44.4365 158.712 45.4538 157.557 46.1699C156.409 46.8861 155.091 47.2441 153.602 47.2441C152.129 47.2441 150.814 46.8901 149.659 46.1821C148.503 45.4741 147.608 44.465 146.973 43.1548C146.338 41.8364 146.017 40.3228 146.009 38.6138V37.7349C146.009 35.9852 146.322 34.4471 146.949 33.1206C147.583 31.786 148.475 30.7646 149.622 30.0566C150.778 29.3405 152.096 28.9824 153.577 28.9824C155.058 28.9824 156.373 29.3405 157.52 30.0566C158.676 30.7646 159.567 31.786 160.193 33.1206C160.828 34.4471 161.145 35.9811 161.145 37.7227V38.5161ZM157.435 37.7104C157.435 35.8468 157.101 34.4308 156.434 33.4624C155.766 32.494 154.814 32.0098 153.577 32.0098C152.348 32.0098 151.4 32.4899 150.733 33.4502C150.066 34.4023 149.728 35.8021 149.72 37.6494V38.5161C149.72 40.3309 150.053 41.7388 150.721 42.7397C151.388 43.7407 152.348 44.2412 153.602 44.2412C154.83 44.2412 155.774 43.7611 156.434 42.8008C157.093 41.8324 157.426 40.4245 157.435 38.5771V37.7104ZM179.384 29.2266V40.9331C179.384 42.8781 178.773 44.4162 177.553 45.5474C176.34 46.6785 174.68 47.2441 172.572 47.2441C170.497 47.2441 168.849 46.6948 167.628 45.5962C166.408 44.4976 165.785 42.988 165.761 41.0674V29.2266H169.423V40.9575C169.423 42.1213 169.7 42.9717 170.253 43.5088C170.814 44.0378 171.588 44.3022 172.572 44.3022C174.631 44.3022 175.677 43.2199 175.709 41.0552V29.2266H179.384ZM193.728 42.3369C193.728 41.6452 193.484 41.1162 192.996 40.75C192.507 40.3757 191.628 39.985 190.359 39.5781C189.089 39.1631 188.084 38.7562 187.344 38.3574C185.326 37.2669 184.316 35.798 184.316 33.9507C184.316 32.9904 184.585 32.1359 185.122 31.3872C185.667 30.6304 186.444 30.0404 187.454 29.6172C188.471 29.194 189.61 28.9824 190.872 28.9824C192.141 28.9824 193.272 29.2144 194.265 29.6782C195.258 30.134 196.027 30.7809 196.572 31.6191C197.126 32.4574 197.402 33.4095 197.402 34.4756H193.74C193.74 33.6618 193.484 33.0311 192.971 32.5835C192.458 32.1278 191.738 31.8999 190.811 31.8999C189.915 31.8999 189.22 32.0911 188.723 32.4736C188.227 32.848 187.979 33.3444 187.979 33.9629C187.979 34.5407 188.267 35.0249 188.845 35.4155C189.431 35.8062 190.29 36.1724 191.421 36.5142C193.504 37.1408 195.022 37.918 195.974 38.8457C196.926 39.7734 197.402 40.929 197.402 42.3125C197.402 43.8506 196.82 45.0591 195.657 45.938C194.493 46.8088 192.926 47.2441 190.957 47.2441C189.59 47.2441 188.345 46.9959 187.222 46.4995C186.099 45.995 185.24 45.3073 184.646 44.4365C184.06 43.5658 183.767 42.5566 183.767 41.4092H187.441C187.441 43.3704 188.613 44.3511 190.957 44.3511C191.828 44.3511 192.507 44.1761 192.996 43.8262C193.484 43.4681 193.728 42.9717 193.728 42.3369ZM212.711 39.2974H205.68V44.0581H213.932V47H202.018V29.2266H213.907V32.1929H205.68V36.4287H212.711V39.2974Z" fill="white"/>
<path d="M56.8394 36.8235C56.8394 49.9809 46.3541 60.647 33.4197 60.647C20.4854 60.647 10 49.9809 10 36.8235C10 23.6661 20.4854 13 33.4197 13C46.3541 13 56.8394 23.6661 56.8394 36.8235Z" fill="white"/>
<g filter="url(#filter0_d_3_192)">
<path d="M46.0113 42.629H43.3646V43.4H46.0113V42.629Z" fill="#0C6784"/>
<path d="M29.3753 45.1348V45.9945C29.3753 50.5357 32.9596 54.2327 37.4173 54.2828C41.9392 54.3329 45.6332 50.609 45.6332 45.9945V42.2435" stroke="#0C6784" stroke-width="3.52512" stroke-miterlimit="10"/>
<path d="M29.2807 45.9058C28.1313 45.9058 27.2012 44.9575 27.2012 43.7856V43.5928H31.3602V43.7856C31.3602 44.9575 30.4301 45.9058 29.2807 45.9058Z" fill="#0C6784"/>
<path d="M27.6625 41.4841L26.5547 43.6043C26.4186 43.8626 26.6001 44.171 26.8875 44.171H31.6779C31.9614 44.171 32.1467 43.8626 32.0106 43.6043L30.9028 41.4841C30.8385 41.3569 30.71 41.2798 30.5701 41.2798H27.999C27.8554 41.2798 27.7268 41.3569 27.6625 41.4841Z" fill="#1A8199"/>
<path d="M30.6986 21.8118H37.1261V33.8588C37.1261 38.2767 33.6137 41.858 29.2807 41.858C24.9478 41.858 21.4354 38.2767 21.4354 33.8588V21.8118H27.481" stroke="#0C6784" stroke-width="3.52512" stroke-miterlimit="10" stroke-linecap="round" stroke-linejoin="round"/>
<path d="M33.2734 27.9336C32.1693 26.8079 30.381 26.8079 29.2807 27.9336C28.1767 26.8079 26.3883 26.8079 25.2881 27.9336C24.1878 29.0593 24.1841 30.8827 25.2881 32.0045L29.2807 36.0755L33.2734 32.0045C34.3774 30.8789 34.3774 29.0554 33.2734 27.9336Z" fill="#3EA3D5"/>
<path d="M45.6332 43.0145C47.9301 43.0145 49.7921 41.116 49.7921 38.774C49.7921 36.432 47.9301 34.5334 45.6332 34.5334C43.3362 34.5334 41.4742 36.432 41.4742 38.774C41.4742 41.116 43.3362 43.0145 45.6332 43.0145Z" fill="#3EA3D5"/>
<path d="M45.6332 41.9544C47.3559 41.9544 48.7524 40.5305 48.7524 38.774C48.7524 37.0175 47.3559 35.5936 45.6332 35.5936C43.9105 35.5936 42.5139 37.0175 42.5139 38.774C42.5139 40.5305 43.9105 41.9544 45.6332 41.9544Z" fill="#0C6784"/>
<path d="M44.8014 41.1063C46.0647 41.1063 47.0888 40.0621 47.0888 38.774C47.0888 37.4859 46.0647 36.4417 44.8014 36.4417C43.538 36.4417 42.5139 37.4859 42.5139 38.774C42.5139 40.0621 43.538 41.1063 44.8014 41.1063Z" fill="url(#paint0_linear_3_192)"/>
<mask id="mask0_3_192" style="mask-type:alpha" maskUnits="userSpaceOnUse" x="42" y="36" width="6" height="6">
<path d="M44.8014 41.1063C46.0647 41.1063 47.0888 40.0621 47.0888 38.774C47.0888 37.4859 46.0647 36.4417 44.8014 36.4417C43.538 36.4417 42.5139 37.4859 42.5139 38.774C42.5139 40.0621 43.538 41.1063 44.8014 41.1063Z" fill="url(#paint1_linear_3_192)"/>
</mask>
<g mask="url(#mask0_3_192)">
<path d="M44.1123 42.8394C45.3756 42.8394 46.3997 41.7952 46.3997 40.5071C46.3997 39.219 45.3756 38.1748 44.1123 38.1748C42.849 38.1748 41.8248 39.219 41.8248 40.5071C41.8248 41.7952 42.849 42.8394 44.1123 42.8394Z" fill="white" fill-opacity="0.2"/>
<path d="M42.5999 40.9119C43.8632 40.9119 44.8874 39.8676 44.8874 38.5796C44.8874 37.2915 43.8632 36.2473 42.5999 36.2473C41.3366 36.2473 40.3125 37.2915 40.3125 38.5796C40.3125 39.8676 41.3366 40.9119 42.5999 40.9119Z" fill="white" fill-opacity="0.2"/>
</g>
<path d="M27.7589 31.0543H30.8025" stroke="white" stroke-width="1.5" stroke-miterlimit="10" stroke-linecap="round" stroke-linejoin="round"/>
<path d="M29.2807 29.5026V32.6059" stroke="white" stroke-width="1.5" stroke-miterlimit="10" stroke-linecap="round" stroke-linejoin="round"/>
</g>
<defs>
<filter id="filter0_d_3_192" x="0.284647" y="0.661081" width="68.8956" height="74.773" filterUnits="userSpaceOnUse" color-interpolation-filters="sRGB">
<feFlood flood-opacity="0" result="BackgroundImageFix"/>
<feColorMatrix in="SourceAlpha" type="matrix" values="0 0 0 0 0 0 0 0 0 0 0 0 0 0 0 0 0 0 127 0" result="hardAlpha"/>
<feOffset/>
<feGaussianBlur stdDeviation="9.69407"/>
<feColorMatrix type="matrix" values="0 0 0 0 0.0470588 0 0 0 0 0.403922 0 0 0 0 0.517647 0 0 0 0.7 0"/>
<feBlend mode="normal" in2="BackgroundImageFix" result="effect1_dropShadow_3_192"/>
<feBlend mode="normal" in="SourceGraphic" in2="effect1_dropShadow_3_192" result="shape"/>
</filter>
<linearGradient id="paint0_linear_3_192" x1="43.1756" y1="39.9305" x2="48.5424" y2="35.9828" gradientUnits="userSpaceOnUse">
<stop stop-color="#CFEFFF"/>
<stop offset="1" stop-color="#107DB4"/>
</linearGradient>
<linearGradient id="paint1_linear_3_192" x1="43.1756" y1="39.9305" x2="48.5424" y2="35.9828" gradientUnits="userSpaceOnUse">
<stop stop-color="#ADE4FF"/>
<stop offset="1" stop-color="#107DB4"/>
</linearGradient>
</defs>
</svg>
